<svg width="24" height="25" viewBox="0 0 24 25" fill="none" xmlns="http://www.w3.org/2000/svg">
<path fill-rule="evenodd" clip-rule="evenodd" d="M1.5 12.626C1.5 12.4271 1.57902 12.2363 1.71967 12.0957C1.86032 11.955 2.05109 11.876 2.25 11.876L19.9395 11.876L15.219 7.15701C15.0782 7.01618 14.9991 6.82517 14.9991 6.62601C14.9991 6.42684 15.0782 6.23584 15.219 6.09501C15.3598 5.95418 15.5508 5.87506 15.75 5.87506C15.9492 5.87506 16.1402 5.95418 16.281 6.09501L22.281 12.095C22.3508 12.1647 22.4063 12.2474 22.4441 12.3386C22.4819 12.4297 22.5013 12.5274 22.5013 12.626C22.5013 12.7247 22.4819 12.8223 22.4441 12.9135C22.4063 13.0046 22.3508 13.0873 22.281 13.157L16.281 19.157C16.1402 19.2978 15.9492 19.377 15.75 19.377C15.5508 19.377 15.3598 19.2978 15.219 19.157C15.0782 19.0162 14.9991 18.8252 14.9991 18.626C14.9991 18.4268 15.0782 18.2358 15.219 18.095L19.9395 13.376L2.25 13.376C2.05109 13.376 1.86032 13.297 1.71967 13.1563C1.57902 13.0157 1.5 12.8249 1.5 12.626Z" fill="#253136"/>
</svg>
