<svg width="55" height="55" viewBox="0 0 55 55" fill="none" xmlns="http://www.w3.org/2000/svg">
<path fill-rule="evenodd" clip-rule="evenodd" d="M4.31201 27.785C4.31201 27.3374 4.4898 26.9082 4.80627 26.5917C5.12274 26.2753 5.55196 26.0975 5.99951 26.0975L45.8009 26.0975L35.1798 15.4797C34.8629 15.1629 34.6849 14.7331 34.6849 14.285C34.6849 13.8369 34.8629 13.4071 35.1798 13.0902C35.4966 12.7734 35.9264 12.5953 36.3745 12.5953C36.8226 12.5953 37.2524 12.7734 37.5693 13.0902L51.0693 26.5902C51.2264 26.747 51.3511 26.9332 51.4362 27.1382C51.5212 27.3432 51.565 27.563 51.565 27.785C51.565 28.0069 51.5212 28.2267 51.4362 28.4317C51.3511 28.6368 51.2264 28.823 51.0693 28.9797L37.5693 42.4797C37.2524 42.7966 36.8226 42.9746 36.3745 42.9746C35.9264 42.9746 35.4966 42.7966 35.1798 42.4797C34.8629 42.1629 34.6849 41.7331 34.6849 41.285C34.6849 40.8369 34.8629 40.4071 35.1798 40.0902L45.8009 29.4725L5.99951 29.4725C5.55196 29.4725 5.12274 29.2947 4.80627 28.9782C4.4898 28.6618 4.31201 28.2325 4.31201 27.785Z" fill="white"/>
</svg>
