<svg width="48" height="43" viewBox="0 0 48 43" fill="none" xmlns="http://www.w3.org/2000/svg">
<path d="M37.8326 12.533C37.6294 5.88111 32.1008 0.529419 25.3446 0.529419H0.546292V11.518H0.529358V16.3077H32.1855C30.924 18.7906 28.3248 20.5018 25.3361 20.5018H0.529358V42.4706H32.2617C40.8721 42.4706 47.8823 35.5251 47.8823 26.9943C47.8823 20.4011 43.7083 14.7559 37.8326 12.533ZM5.38064 11.518V5.32749H25.3446C29.0867 5.32749 32.2193 8.01173 32.8797 11.5348C32.6765 11.5264 32.4733 11.518 32.2701 11.518H5.38064ZM32.2617 37.6809H5.37218V25.2915H25.3446C30.6446 25.2915 35.1826 22.0117 36.9944 17.3898C40.5757 19.1261 43.0479 22.775 43.0479 26.9943C43.0479 32.8828 38.2136 37.6809 32.2617 37.6809Z" fill="#1A1A1A"/>
</svg>
